<svg width="200" height="200" viewBox="0 0 200 200" fill="none" xmlns="http://www.w3.org/2000/svg">
  <defs>
    <linearGradient id="aGradient" x1="61" y1="36" x2="140" y2="152" gradientUnits="userSpaceOnUse">
      <stop stop-color="#CCFF8A" />
      <stop offset="1" stop-color="#7AD800" />
    </linearGradient>
    <linearGradient id="bookShade" x1="25" y1="135" x2="173" y2="172" gradientUnits="userSpaceOnUse">
      <stop stop-color="#C7CDD3" />
      <stop offset="1" stop-color="#818A93" />
    </linearGradient>
    <filter id="softShadow" x="18" y="53" width="164" height="131" filterUnits="userSpaceOnUse" color-interpolation-filters="sRGB">
      <feDropShadow dx="0" dy="10" stdDeviation="8" flood-color="#111827" flood-opacity="0.34" />
    </filter>
  </defs>

  <rect width="200" height="200" rx="24" fill="#E5E7EB" />

  <g filter="url(#softShadow)">
    <path d="M24 166L58 103H99V166H24Z" fill="white" stroke="#B0B7BE" stroke-width="1.2" />
    <path d="M176 166L142 103H101V166H176Z" fill="white" stroke="#9CA3AF" stroke-width="1.2" />
    <path d="M99 103V166" stroke="#374151" stroke-width="1" />
    <path d="M24 166C46 160 77 160 99 166" stroke="url(#bookShade)" stroke-width="3" />
    <path d="M176 166C154 160 123 160 101 166" stroke="url(#bookShade)" stroke-width="3" />
  </g>

  <path d="M58 152L82 36H118L142 152H119L112 128H88L81 152H58Z" fill="url(#aGradient)" stroke="#7F1D1D" stroke-width="2" />
  <path d="M94 128L100 78L106 128H94Z" fill="white" stroke="#B91C1C" stroke-width="1.6" />
  <path d="M84 82H116V92H105V117H95V92H84V82Z" fill="white" stroke="#B91C1C" stroke-width="1.6" />
</svg>
