<svg width="220" height="140" viewBox="0 0 220 140" fill="none" xmlns="http://www.w3.org/2000/svg">
  <rect width="220" height="140" rx="14" fill="#000503" />

  <rect x="12" y="20" width="196" height="98" fill="#111111" stroke="#F8FAFC" stroke-width="2" />
  <circle cx="18" cy="26" r="2.4" fill="#F8FAFC" />
  <circle cx="202" cy="26" r="2.4" fill="#F8FAFC" />
  <circle cx="18" cy="112" r="2.4" fill="#F8FAFC" />
  <circle cx="202" cy="112" r="2.4" fill="#F8FAFC" />

  <rect x="20" y="28" width="180" height="24" fill="#000" stroke="#F8FAFC" stroke-width="1" />
  <text x="110" y="45" text-anchor="middle" font-family="Impact, Arial Black, sans-serif" font-size="10" letter-spacing="1.5" fill="#F8FAFC">PRODUCTION</text>

  <rect x="20" y="56" width="180" height="46" fill="#F8FAFC" stroke="#9CA3AF" stroke-width="1" />
  <text x="110" y="85" text-anchor="middle" font-family="Impact, Arial Black, sans-serif" font-size="22" letter-spacing="1" fill="#0B0F17">TEAM</text>

  <ellipse cx="110" cy="25" rx="14" ry="4" fill="#374151" />
  <text x="110" y="26.8" text-anchor="middle" font-family="Arial, sans-serif" font-size="5" font-weight="700" fill="#F8FAFC">ABCF</text>

  <g stroke="#000" stroke-width="0.7" opacity="0.35">
    <path d="M20 56L200 102" />
    <path d="M32 56L200 95" />
    <path d="M44 56L200 88" />
    <path d="M56 56L200 81" />
    <path d="M68 56L200 74" />
    <path d="M80 56L200 67" />
  </g>
</svg>
